<svg xmlns="http://www.w3.org/2000/svg" width="1240" height="1240"><path d="M0 620.001v620.001l620.25-.251 620.25-.251.251-619.75.251-619.75H0v620.001m.497.499c0 341 .114 480.649.253 310.332s.139-449.317 0-620S.497 279.5.497 620.5M307 205.104c-38.75 3.821-74.174 28.389-90.686 62.896-6.976 14.579-9.659 24.224-11.245 40.424-1.495 15.274-1.495 609.878 0 625.152 2.769 28.282 13.365 51.031 32.845 70.51 18.968 18.969 40.575 29.41 67.995 32.857 5.751.723 105.65 1.047 316 1.025 325.545-.033 315.648.098 332.445-4.422 7.961-2.142 19.217-6.916 26.15-11.09 3.156-1.901 6.134-3.456 6.617-3.456.484 0 .879-.353.879-.784 0-.432 1.463-1.639 3.25-2.684 4.541-2.654 20.825-18.799 23.776-23.574 1.345-2.177 2.79-3.958 3.21-3.958.42 0 .764-.395.764-.879 0-.483 1.555-3.461 3.456-6.617 4.161-6.911 8.937-18.16 11.101-26.15 4.487-16.567 4.378-8.305 4.411-332.945.022-209.999-.302-309.75-1.025-315.5-1.856-14.767-5.562-27.297-11.599-39.222-10.574-20.886-31.016-40.96-51.344-50.422-15.28-7.112-24.339-9.621-40.424-11.196-13.241-1.296-613.417-1.263-626.576.035m1.746 75.978c-10.38 2.457-20.631 11.085-25.449 21.418l-2.797 6v625l3.106 6.5c5.792 12.118 16.32 19.78 30.086 21.895 10.193 1.566 604.423 1.566 614.616 0 18.416-2.829 30.758-15.171 33.587-33.587 1.566-10.193 1.566-604.423 0-614.616-2.115-13.766-9.777-24.294-21.895-30.086l-6.5-3.106-310.5-.154c-178.22-.088-312.099.226-314.254.736m447.088 210.885c-2.566.977-6.166 2.798-8 4.046-1.833 1.248-40.116 38.987-85.072 83.864l-81.737 81.593-41.763-41.614c-22.969-22.888-43.562-42.704-45.762-44.035-9.997-6.052-24.448-7.098-34.72-2.512-16.903 7.547-26.431 27.091-21.357 43.81 3.242 10.681 4.687 12.296 63.425 70.939 57.6 57.506 58.671 58.475 69.449 62.816 1.538.619 6.355 1.126 10.703 1.126 7.911 0 9.593-.409 18-4.376 6.042-2.852 198.677-195.109 201.981-201.586 6.418-12.58 6.644-23.922.719-36.038-4-8.181-11.279-14.155-22.997-18.874-4.245-1.709-17.446-1.224-22.869.841" fill="undefined" fill-rule="evenodd"/></svg>